<svg width="23" height="22" viewBox="0 0 23 22" fill="none" xmlns="http://www.w3.org/2000/svg">
    <path
        d="M11.0918 15.1426C10.0156 14.9385 9.28271 14.5303 8.73535 13.9922C6.43457 11.6914 6.45312 8.46289 8.72607 6.18994L11.9546 2.95215C14.2275 0.679199 17.4561 0.660645 19.7568 2.9707C22.0576 5.27148 22.0483 8.5 19.7661 10.7729L17.1035 13.4263C17.2612 12.7119 17.1685 11.8862 16.8716 11.209L18.4673 9.61328C20.0259 8.05469 20.0352 5.84668 18.458 4.26025C16.8901 2.69238 14.6729 2.69238 13.105 4.26025L10.0249 7.34033C8.46631 8.89893 8.46631 11.1255 10.0342 12.6934C10.6094 13.2686 11.3887 13.6211 12.502 13.7231L11.0918 15.1426ZM11.9082 7.32178C12.9937 7.52588 13.7266 7.93408 14.2646 8.48145C16.5654 10.7729 16.5562 14.0015 14.2739 16.2837L11.0547 19.5122C8.78174 21.7852 5.55322 21.8037 3.25244 19.5029C0.95166 17.2021 0.960938 13.9644 3.24316 11.6914L5.89648 9.03809C5.73877 9.76172 5.84082 10.5781 6.12842 11.2554L4.54199 12.8511C2.97412 14.4097 2.96484 16.627 4.54199 18.2041C6.11914 19.772 8.32715 19.772 9.89502 18.2041L12.9751 15.124C14.543 13.5654 14.543 11.3481 12.9658 9.771C12.3999 9.20508 11.6113 8.84326 10.5073 8.74121L11.9082 7.32178Z"
        fill="#FF2F00" />
</svg>