<svg width="111" height="69" viewBox="0 0 111 69" fill="none" xmlns="http://www.w3.org/2000/svg">
    <path
        d="M93.1803 48.8227L92.9806 49.6213C92.1321 52.9656 93.5796 55.5113 96.4248 55.5113C99.9188 55.5113 102.564 52.3167 102.564 48.1738C102.564 45.678 101.017 44.0807 98.5711 44.0807C95.8258 44.0807 93.8292 46.1772 93.1803 48.8227ZM91.0838 57.1086L88.1389 68.8885H80.0526L87.5898 38.64H95.676L94.7276 42.4835C96.4248 39.838 99.3697 38.041 102.614 38.041C107.706 38.041 111 41.6848 111 46.876C111 54.6128 105.959 61.5011 98.1718 61.5011C95.0271 61.5011 91.9823 59.6542 91.0838 57.1086Z"
        fill="#FF2F00" />
    <path
        d="M71.3065 38.041C77.7456 38.041 82.5873 42.1341 82.5873 48.1738C82.5873 55.8607 76.7972 61.5011 68.661 61.5011C62.1721 61.5011 57.3303 57.4081 57.3303 51.3683C57.3303 43.6814 63.1205 38.041 71.3065 38.041ZM70.9571 43.8312C67.2135 43.8312 65.5663 48.4234 65.6162 51.4682C65.6162 54.1137 66.5646 55.7109 68.9106 55.7109C72.7042 55.7109 74.2515 51.1188 74.3014 48.0739C74.3014 45.4284 73.3531 43.8312 70.9571 43.8312Z"
        fill="#FF2F00" />
    <path
        d="M38.1801 38.6389H42.2731L43.8704 33.3978L52.2062 31.9004L50.1098 38.6389H58.3458L56.8983 44.1296H48.4626L46.1166 52.0162C45.5675 53.8131 46.4161 55.061 48.2629 55.061C50.3594 55.061 52.7553 54.2623 55.0514 52.3656L54.2528 58.8046C51.6073 60.4518 49.0117 61.5 44.8687 61.5C39.6776 61.5 36.3332 58.2555 38.1801 52.1659L40.6259 44.1296H36.8324L38.1801 38.6389Z"
        fill="#FF2F00" />
    <path
        d="M55.4662 18.2181L52.7708 28.9998H44.6846L50.2251 6.73766H58.3114L57.363 10.5312C59.1599 8.08536 62.055 6.13867 65.4492 6.13867C71.1396 6.13867 73.5854 10.631 72.3874 15.4728L68.9932 28.9998H60.907L63.852 17.1699C64.6007 14.1251 63.9019 12.3281 61.456 12.3281C58.3613 12.3281 56.3647 14.7241 55.4662 18.2181Z"
        fill="#FF2F00" />
    <path
        d="M38.0544 21.4626L43.7946 23.8086C41.6483 27.6521 37.4055 29.5988 32.3641 29.5988C25.9749 29.5988 21.1332 25.8551 21.1332 19.8154C21.1332 12.0287 27.2727 6.13867 35.0096 6.13867C41.9478 6.13867 45.2422 10.5312 45.2422 15.922C45.2422 17.1699 45.1423 17.8687 44.7929 19.1665H28.9199C28.6204 21.8619 30.3675 23.8086 33.1128 23.8086C35.5087 23.8086 37.0561 22.9101 38.0544 21.4626ZM29.3692 15.6225H37.7549C37.8048 13.4263 37.0062 11.6792 34.4605 11.6792C31.9647 11.6792 30.0181 13.3764 29.3692 15.6225Z"
        fill="#FF2F00" />
    <path
        d="M2.08281 6.73854H6.17585L7.77313 1.49745L16.1089 0L14.0125 6.73854H22.2485L20.801 12.2292H12.3653L10.0193 20.1158C9.47024 21.9127 10.3188 23.1606 12.1657 23.1606C14.2621 23.1606 16.658 22.3619 18.9541 20.4652L18.1555 26.9042C15.51 28.5514 12.9144 29.5996 8.77143 29.5996C3.58027 29.5996 0.235957 26.3552 2.08281 20.2655L4.52865 12.2292H0.735107L2.08281 6.73854Z"
        fill="#FF2F00" />
</svg>