<?xml version="1.0" encoding="UTF-8" standalone="no"?>
<svg
   width="36"
   height="33"
   viewBox="0 0 36 33"
   fill="none"
   version="1.1"
   id="svg2"
   sodipodi:docname="star-1-3.svg"
   inkscape:version="1.3.2 (091e20ef0f, 2023-11-25, custom)"
   xmlns:inkscape="http://www.inkscape.org/namespaces/inkscape"
   xmlns:sodipodi="http://sodipodi.sourceforge.net/DTD/sodipodi-0.dtd"
   xmlns="http://www.w3.org/2000/svg"
   xmlns:svg="http://www.w3.org/2000/svg">
  <defs
     id="defs2" />
  <sodipodi:namedview
     id="namedview2"
     pagecolor="#ffffff"
     bordercolor="#000000"
     borderopacity="0.25"
     inkscape:showpageshadow="2"
     inkscape:pageopacity="0.0"
     inkscape:pagecheckerboard="0"
     inkscape:deskcolor="#d1d1d1"
     inkscape:zoom="26.727273"
     inkscape:cx="18.015306"
     inkscape:cy="16.5"
     inkscape:window-width="1920"
     inkscape:window-height="1080"
     inkscape:window-x="0"
     inkscape:window-y="0"
     inkscape:window-maximized="1"
     inkscape:current-layer="svg2" />
  <path
     d="M8.34025 18.8318L2.84741 13.339L11.479 11.7696L15.4025 8.63086V28.2481L9.12494 30.6022L8.34025 18.8318Z"
     fill="#FF2F00"
     id="path1" />
  <path
     d="m 28.5857,17.6473 3e-4,-3e-4 4.5401,-4.4259 0.0012,-0.0011 c 0.064,-0.0623 0.1169,-0.1196 0.1603,-0.1713 -0.0651,-0.0162 -0.1411,-0.0314 -0.2289,-0.0442 z m 0,0 c -0.9072,0.8848 -1.5702,2.1086 -1.9663,3.3287 m 1.9663,-3.3287 -1.9663,3.3287 m 0,0 c -0.396,1.2197 -0.5786,2.6 -0.3633,3.8506 z m 0.1619,-8.8822 6.2773,0.9107 c -5.744756,3.818198 -8.854095,9.151793 -5.7305,18.0694 0.0153,0.0897 0.0243,0.1684 0.0288,0.2364 -0.0635,-0.0253 -0.1357,-0.0582 -0.2164,-0.1004 -2e-4,-10e-5 -4e-4,-2e-4 -5e-4,-3e-4 l -5.6089,-2.9489 c -10e-5,0 -2e-4,-10e-5 -2e-4,-10e-5 -1.1217,-0.5911 -2.4908,-0.8438 -3.7733,-0.8438 -1.2826,0 -2.6519,0.2527 -3.7746,0.8432 -10e-5,0 -2e-4,10e-5 -3e-4,10e-5 l -5.61133,2.9501 c -1.1e-4,10e-5 -2.1e-4,10e-5 -3.2e-4,2e-4 -1.4e-4,10e-5 -2.7e-4,10e-5 -4e-4,2e-4 -0.08015,0.0421 -0.15187,0.0748 -0.21495,0.1 0.00449,-0.0683 0.01348,-0.1474 0.02884,-0.2376 3e-5,-2e-4 7e-5,-4e-4 1.1e-4,-6e-4 l 1.0715,-6.2442 c 0.21579,-1.2498 0.03298,-2.63 -0.363,-3.8497 -0.39608,-1.22 -1.05877,-2.4438 -1.96492,-3.3298 L 6.92655,17.647 2.3864,13.2211 2.3852,13.2199 C 2.32113,13.1576 2.26824,13.1003 2.22491,13.0486 2.28988,13.0325 2.36579,13.0173 2.45354,13.0045 h 2.6e-4 l 6.27765,-0.9107 h 1.2e-4 C 9.98533,11.9118 11.241,11.3115 12.2785,10.5576 13.3162,9.80353 14.2757,8.79401 14.837,7.65561 l 2.8059,-5.68572 8e-4,-0.00157 c 0.0391,-0.0794 0.0769,-0.14682 0.1122,-0.20357 0.0358,0.05711 0.0741,0.12505 0.1137,0.20514 1e-4,2.2e-4 2e-4,4.3e-4 3e-4,6.4e-4 l 2.8058,5.68554 3e-4,6.6e-4 c 0.561,1.13545 1.5189,2.14454 2.5561,2.89907 1.0369,0.7544 2.2928,1.3559 3.549,1.538 z m -0.525,12.7339 1.0717,6.2451 z"
     stroke="#ff2f00"
     stroke-width="3.13876"
     id="path2"
     sodipodi:nodetypes="ccccccccccccccccccscccsccccccsccscccccccccccccccccccccccc" />
</svg>
