<svg width="35" height="33" viewBox="0 0 35 33" fill="none" xmlns="http://www.w3.org/2000/svg">
  <path
    d="M14.22 29.6491C15.9003 28.7653 18.6292 28.7653 20.3061 29.6491L25.9183 32.5997C27.5986 33.4801 28.7009 32.677 28.3816 30.8085L27.3096 24.5612C26.987 22.6893 27.8305 20.0949 29.1882 18.7708L33.7283 14.3449C35.0894 13.0208 34.6659 11.7236 32.7908 11.4514L26.5131 10.5407C24.6345 10.2684 22.43 8.66206 21.5898 6.96156L18.7837 1.27538C17.9435 -0.425126 16.5791 -0.425126 15.7423 1.27538L12.9362 6.96156C12.096 8.66542 9.88808 10.2684 8.01284 10.5407L1.73519 11.4514C-0.143395 11.7236 -0.560132 13.0241 0.79762 14.3449L5.33777 18.7708C6.69544 20.0983 7.53898 22.6926 7.21636 24.5612L6.14432 30.8085C5.82506 32.6804 6.9307 33.4802 8.60766 32.5997L14.22 29.6491Z"
    fill="#FF2F00" />
</svg>